<svg xmlns="http://www.w3.org/2000/svg" xmlns:xlink="http://www.w3.org/1999/xlink" width="500" zoomAndPan="magnify" viewBox="0 0 375 374.999991" height="500" preserveAspectRatio="xMidYMid meet" version="1.0"><defs><clipPath id="e6f857fce3"><path d="M 15 67 L 277 67 L 277 310 L 15 310 Z M 15 67 " clip-rule="nonzero"/></clipPath><clipPath id="2a401c2f5b"><path d="M 86.089844 13.078125 L 323.859375 173.414062 L 203.132812 352.441406 L -34.636719 192.101562 Z M 86.089844 13.078125 " clip-rule="nonzero"/></clipPath><clipPath id="417eb7d23b"><path d="M 220.714844 103.859375 C 223.316406 105.613281 225.929688 107.378906 228.527344 109.128906 C 247.203125 126.074219 253.425781 144.746094 248.332031 165.007812 C 284.296875 186.101562 285.847656 231.945312 252.945312 253.726562 C 253.746094 263.503906 253.195312 273.46875 248.296875 284.039062 C 246.457031 286.769531 244.617188 289.496094 242.777344 292.226562 C 221.847656 313.414062 191.148438 316.570312 161.882812 290.410156 C 145.183594 297.277344 122.652344 298.84375 100.082031 282.757812 C 88.761719 273.933594 83.695312 263.625 80.34375 252.988281 C 69.5 252.636719 58.71875 250.832031 46.769531 242.832031 C 19.148438 224.308594 13.128906 193.433594 29.734375 167.84375 C 15.996094 149.976562 11.433594 130.835938 20.90625 109.738281 C 22.75 107.003906 24.59375 104.269531 26.429688 101.550781 C 42.664062 85.257812 61.949219 81.15625 84.214844 88.917969 C 104.378906 56.570312 155.503906 62.332031 177.1875 97.199219 C 189.222656 95.304688 204.746094 94.855469 220.714844 103.859375 Z M 220.714844 103.859375 " clip-rule="nonzero"/></clipPath><clipPath id="73b50a601d"><path d="M 29 49 L 303 49 L 303 291 L 29 291 Z M 29 49 " clip-rule="nonzero"/></clipPath><clipPath id="0dfa3490b5"><path d="M 102.410156 -0.511719 L 348.511719 176.214844 L 230.074219 341.140625 L -16.027344 164.414062 Z M 102.410156 -0.511719 " clip-rule="nonzero"/></clipPath><clipPath id="0fc462e50c"><path d="M 225.199219 87.664062 C 157.382812 38.964844 75.898438 36.40625 43.191406 81.949219 C 10.488281 127.492188 38.949219 203.890625 106.761719 252.589844 C 174.578125 301.289062 256.066406 303.847656 288.769531 258.304688 C 321.476562 212.757812 293.011719 136.363281 225.199219 87.664062 Z M 225.199219 87.664062 " clip-rule="nonzero"/></clipPath><clipPath id="065aca2789"><path d="M 7 215 L 99 215 L 99 304 L 7 304 Z M 7 215 " clip-rule="nonzero"/></clipPath><clipPath id="524aa4c12a"><path d="M 53.433594 215.269531 L 98.367188 263.507812 L 29.398438 327.746094 L -15.535156 279.507812 Z M 53.433594 215.269531 " clip-rule="nonzero"/></clipPath><clipPath id="7422754635"><path d="M 7.117188 303.453125 L 98.367188 263.507812 L 53.433594 215.269531 Z M 7.117188 303.453125 " clip-rule="nonzero"/></clipPath><clipPath id="245ec7e92a"><path d="M 252 205 L 350 205 L 350 290.386719 L 252 290.386719 Z M 252 205 " clip-rule="nonzero"/></clipPath></defs><g clip-path="url(#e6f857fce3)"><g clip-path="url(#2a401c2f5b)"><g clip-path="url(#417eb7d23b)"><path fill="#71b572" d="M 86.089844 13.078125 L 323.160156 172.941406 L 202.433594 351.96875 L -34.636719 192.101562 Z M 86.089844 13.078125 " fill-opacity="1" fill-rule="nonzero"/></g></g></g><g clip-path="url(#73b50a601d)"><g clip-path="url(#0dfa3490b5)"><g clip-path="url(#0fc462e50c)"><path fill="#71b572" d="M 102.410156 -0.511719 L 347.867188 175.75 L 229.429688 340.675781 L -16.027344 164.414062 Z M 102.410156 -0.511719 " fill-opacity="1" fill-rule="nonzero"/></g></g></g><g clip-path="url(#065aca2789)"><g clip-path="url(#524aa4c12a)"><g clip-path="url(#7422754635)"><path fill="#71b572" d="M 53.433594 215.269531 L 98.367188 263.507812 L 29.585938 327.570312 L -15.347656 279.332031 Z M 53.433594 215.269531 " fill-opacity="1" fill-rule="nonzero"/></g></g></g><g clip-path="url(#245ec7e92a)"><path fill="#000000" d="M 305.597656 235 C 305.597656 235 328.164062 201.511719 343.582031 212.332031 C 369.5625 230.558594 305.597656 290.386719 305.597656 290.386719 C 305.597656 290.386719 228.570312 238.910156 260.417969 209.855469 C 279.847656 192.132812 305.597656 235 305.597656 235 Z M 305.597656 235 " fill-opacity="1" fill-rule="nonzero"/></g><path stroke-linecap="round" transform="matrix(0.358309, -0.658874, 0.658874, 0.358309, -1.800548, 302.252968)" fill="none" stroke-linejoin="miter" d="M 13.498938 13.497949 L 375.292817 13.501994 " stroke="#000000" stroke-width="27" stroke-opacity="1" stroke-miterlimit="4"/><path stroke-linecap="round" transform="matrix(0.372909, -0.650722, 0.650722, 0.372909, 160.086162, 295.809269)" fill="none" stroke-linejoin="miter" d="M 13.500943 13.501111 L 332.47915 13.500235 " stroke="#000000" stroke-width="27" stroke-opacity="1" stroke-miterlimit="4"/><path stroke-linecap="round" transform="matrix(-0.0940808, -0.744076, 0.744076, -0.0940808, 163.557987, 302.116415)" fill="none" stroke-linejoin="miter" d="M 13.500838 13.498912 L 324.11064 13.498578 " stroke="#000000" stroke-width="27" stroke-opacity="1" stroke-miterlimit="4"/><path stroke-linecap="round" transform="matrix(0.565254, -0.492938, 0.492938, 0.565254, 280.933697, 145.91419)" fill="none" stroke-linejoin="miter" d="M 13.499305 13.499703 L 86.667408 13.501377 " stroke="#000000" stroke-width="27" stroke-opacity="1" stroke-miterlimit="4"/><path stroke-linecap="round" transform="matrix(0.744016, -0.0945497, 0.0945497, 0.744016, 297.910473, 163.17034)" fill="none" stroke-linejoin="miter" d="M 13.499253 13.499047 L 86.666341 13.498993 " stroke="#000000" stroke-width="27" stroke-opacity="1" stroke-miterlimit="4"/></svg>